# xmcd
#
# Track frame offsets: 
#        150
#        15078
#        30384
#        50106
#        63678
#        83977
#        96863
#        112710
#        126304
#        141610
#        157629
#        172708
#
# Disc length: 2459 seconds
#
# Revision: 1
# Processed by: cddbd v1.5.2PL0 Copyright (c) Steve Scherf et al.
# Submitted via: ExactAudioCopy v1.0b3
#
DISCID=8f09990c
DTITLE=Ray Bonneville - Roll It Down
DYEAR=2003
DGENRE=Blues
TTITLE0=Tomorrow's Yesterday
TTITLE1=Under The Bridge
TTITLE2=July Sun
TTITLE3=Roll It Down
TTITLE4=Oxford Town
TTITLE5=Walk With Me
TTITLE6=Tiptoe Spider
TTITLE7=Slow Matin
TTITLE8=Who's Talkin' To Me
TTITLE9=Stand Real Still
TTITLE10=You Know What I Mean
TTITLE11=I Been A Train
EXTD=
EXTT0=
EXTT1=
EXTT2=
EXTT3=
EXTT4=
EXTT5=
EXTT6=
EXTT7=
EXTT8=
EXTT9=
EXTT10=
EXTT11=
PLAYORDER=
